<svg viewBox="0 0 1000 600" xmlns="http://www.w3.org/2000/svg" role="img" aria-labelledby="t d" font-family="'Plus Jakarta Sans',system-ui,sans-serif">
<title id="t">SaSMaster skill fleet — domain map</title>
<desc id="d">Roughly forty skills organized into seven domains: data and fusion, control and build, insight and research, UI and design, voice and content, exec and learning, and output and tooling. Skills are composed at runtime via progressive disclosure and promoted through the self-learning lifecycle when a pattern recurs three or more times.</desc>
<defs>
<style>
 .k{font-size:12px;font-weight:800;letter-spacing:3px;fill:#7C3AED}
 .h1{font-size:26px;font-weight:800;fill:#1F1B33}
 .ct{font-size:13px;font-weight:800;fill:#fff}
 .cn{font-size:11px;font-weight:800;fill:#fff;font-family:'Share Tech Mono',monospace;opacity:.92}
 .sk{font-size:10px;fill:#2c2740;font-family:'Share Tech Mono',monospace}
 .bk{font-size:12px;font-weight:700;fill:#3a2d63}
</style>
</defs>
<rect x="0" y="0" width="1000" height="600" rx="16" fill="#FAF7FF"/>
<rect x="1" y="1" width="998" height="598" rx="15" fill="none" stroke="#E5DCFF" stroke-width="2"/>
<text x="40" y="40" class="k">SKILL FLEET</text>
<text x="40" y="68" class="h1">~40 skills · 7 domains · composed at runtime</text>

<!-- hub banner -->
<rect x="40" y="84" width="920" height="40" rx="10" fill="#F4F1FF" stroke="#D6C9Fb"/>
<rect x="40" y="84" width="6" height="40" rx="3" fill="#7C3AED"/>
<text x="62" y="103" style="font-size:12px;font-weight:800;fill:#4C1D95">PROGRESSIVE DISCLOSURE</text>
<text x="62" y="118" style="font-size:10.5px;fill:#5A5470">metadata (~100 words) → SKILL.md (&lt;500 lines) → resources · promoted via the lifecycle when a pattern recurs ≥3×</text>

<!-- ROW 1 -->
<!-- data&fusion -->
<rect x="40" y="142" width="294" height="158" rx="12" fill="#fff" stroke="#bde6d6"/>
<path d="M40,142 h294 v28 H40 Z" fill="#059669"/><rect x="40" y="158" width="294" height="12" fill="#059669"/>
<text x="56" y="162" class="ct">DATA &amp; FUSION</text><text x="318" y="162" text-anchor="end" class="cn">8</text>
<g transform="translate(56,192)">
 <text class="sk" y="0">s3-data-architect · duckdb-parquet</text>
 <text class="sk" y="20">media-domain · scraper-engineer</text>
 <text class="sk" y="40">gracenote-onconnect · gracenote-validate</text>
 <text class="sk" y="60">wikidata-fusion · the-numbers-boxoffice</text>
 <text class="sk" y="84" fill="#059669">the canonical spine + provenance wall</text>
</g>
<!-- control&build -->
<rect x="353" y="142" width="294" height="158" rx="12" fill="#fff" stroke="#D6C9Fb"/>
<path d="M353,142 h294 v28 H353 Z" fill="#4C1D95"/><rect x="353" y="158" width="294" height="12" fill="#4C1D95"/>
<text x="369" y="162" class="ct">CONTROL &amp; BUILD</text><text x="631" y="162" text-anchor="end" class="cn">7</text>
<g transform="translate(369,192)">
 <text class="sk" y="0">build-discipline · jarvis-ops</text>
 <text class="sk" y="20">fullstack-architect · aws-infra</text>
 <text class="sk" y="40">qa-agent · playwright-debugger</text>
 <text class="sk" y="60">skill-creator</text>
 <text class="sk" y="84" fill="#4C1D95">the constitution + the gates</text>
</g>
<!-- insight&research -->
<rect x="666" y="142" width="294" height="158" rx="12" fill="#fff" stroke="#f2dcb4"/>
<path d="M666,142 h294 v28 H666 Z" fill="#B45309"/><rect x="666" y="158" width="294" height="12" fill="#B45309"/>
<text x="682" y="162" class="ct">INSIGHT &amp; RESEARCH</text><text x="944" y="162" text-anchor="end" class="cn">3</text>
<g transform="translate(682,192)">
 <text class="sk" y="0">programming-researcher</text>
 <text class="sk" y="20">data-viz</text>
 <text class="sk" y="40">reporting-catalog (deposit slot)</text>
 <text class="sk" y="84" fill="#B45309">decode → radical insight → catalog</text>
</g>

<!-- ROW 2 -->
<!-- ui&design -->
<rect x="40" y="316" width="294" height="158" rx="12" fill="#fff" stroke="#D6C9Fb"/>
<path d="M40,316 h294 v28 H40 Z" fill="#A682F2"/><rect x="40" y="332" width="294" height="12" fill="#A682F2"/>
<text x="56" y="336" class="ct">UI &amp; DESIGN</text><text x="318" y="336" text-anchor="end" class="cn">5</text>
<g transform="translate(56,366)">
 <text class="sk" y="0">autonomous-ui-designer</text>
 <text class="sk" y="20">uiux-mastery · theme-factory</text>
 <text class="sk" y="40">brand-guidelines · canvas-design</text>
 <text class="sk" y="84" fill="#7C3AED">the cinematic portal system</text>
</g>
<!-- voice&content -->
<rect x="353" y="316" width="294" height="158" rx="12" fill="#fff" stroke="#D6C9Fb"/>
<path d="M353,316 h294 v28 H353 Z" fill="#7C3AED"/><rect x="353" y="332" width="294" height="12" fill="#7C3AED"/>
<text x="369" y="336" class="ct">VOICE &amp; CONTENT</text><text x="631" y="336" text-anchor="end" class="cn">5</text>
<g transform="translate(369,366)">
 <text class="sk" y="0">shiv-executive-profile</text>
 <text class="sk" y="20">linkedin-thought-leader</text>
 <text class="sk" y="40">sow-consultant · internal-comms</text>
 <text class="sk" y="60">doc-coauthoring</text>
 <text class="sk" y="84" fill="#7C3AED">Shiv's voice · the funnel</text>
</g>
<!-- exec&learning -->
<rect x="666" y="316" width="294" height="158" rx="12" fill="#fff" stroke="#E5DCFF"/>
<path d="M666,316 h294 v28 H666 Z" fill="#5A5470"/><rect x="666" y="332" width="294" height="12" fill="#5A5470"/>
<text x="682" y="336" class="ct">EXEC &amp; LEARNING</text><text x="944" y="336" text-anchor="end" class="cn">4</text>
<g transform="translate(682,366)">
 <text class="sk" y="0">emba-analyst · math-mastery</text>
 <text class="sk" y="20">learn · schedule</text>
 <text class="sk" y="84" fill="#5A5470">the operator's own toolkit</text>
</g>

<!-- bottom strip -->
<rect x="40" y="490" width="920" height="56" rx="11" fill="#EEEAFB" stroke="#D6C9Fb"/>
<rect x="40" y="490" width="220" height="56" rx="11" fill="#2A1163"/><rect x="244" y="490" width="16" height="56" fill="#2A1163"/>
<text x="58" y="514" class="ct">OUTPUT &amp; TOOLING</text><text x="58" y="532" class="cn" fill="#C7B8FF">6 · the deliverable layer</text>
<text x="280" y="514" class="sk" font-size="11">docx · pptx · xlsx · pdf</text>
<text x="280" y="534" class="sk" font-size="11">mcp-builder · slack-gif-creator</text>
<text x="640" y="524" class="bk" font-size="11">every domain composes these to ship — the format skills the fleet reaches for last.</text>
</svg>
